<?xml version="1.0" encoding="utf-8"?>
<!-- Generator: Adobe Illustrator 27.5.0, SVG Export Plug-In . SVG Version: 6.00 Build 0)  -->
<svg version="1.1" xmlns="http://www.w3.org/2000/svg" xmlns:xlink="http://www.w3.org/1999/xlink" x="0px" y="0px"
	 viewBox="0 0 3710 3710" style="enable-background:new 0 0 3710 3710;" xml:space="preserve">
<g id="Background">
	<g>
		<g>
			<rect style="fill:#FFFFFF;" width="3710" height="3710"/>
		</g>
	</g>
</g>
<g id="Illustration">
	<g>
		<linearGradient id="SVGID_1_" gradientUnits="userSpaceOnUse" x1="3420.1716" y1="3615.0618" x2="1365.6346" y2="1397.4659">
			<stop  offset="0" style="stop-color:#DAE3FE"/>
			<stop  offset="1" style="stop-color:#E9EFFD"/>
		</linearGradient>
		<path style="fill:url(#SVGID_1_);" d="M3137.12,2350.153c-283.047,658.367-1030.201,941.152-1615.607,892.937
			c-159.84-13.165-481.441-39.653-732.55-275.961c-482.237-453.816-407.968-1402.417,53.671-1960.901
			c59.45-71.921,470.951-553.785,1112.199-547.336c469.487,4.722,799.015,268.637,839.085,301.516
			c50.618,41.535,162.262,140.234,262.88,296.815C3293.214,1425.134,3313.996,1938.739,3137.12,2350.153z"/>
		<g style="opacity:0.9;">
			<path style="fill:#91B3FA;" d="M1179.721,2790.133c0,0,11.752-1183.035-366.416-1927.495
				c-25.422-50.044-93.445-50.801-119.845-1.165C516.929,1193.382,84.701,2226.733,1179.721,2790.133z"/>
			<path style="opacity:0.5;fill:#FFFFFF;" d="M1090.779,2690.748c1.967,3.337-2.465,6.672-4.84,3.643
				c-87.6-111.646-405.531-631.252-364.914-1493.117c0.131-2.769,4.063-2.823,4.16-0.054
				C732.367,1405.277,779.751,2163.089,1090.779,2690.748z"/>
		</g>
		<g style="opacity:0.92;">
			<path style="fill:#BDD0FB;" d="M1272.562,2320.765c0,0,246.435-1065.205,36.124-1817.127
				c-14.138-50.546-78.45-65.627-113.341-26.418C962.037,739.403,346.902,1580.519,1272.562,2320.765z"/>
			<path style="opacity:0.5;fill:#FFFFFF;" d="M1208.042,2212.244c1.2,3.428-3.663,5.499-5.312,2.263
				c-60.809-119.302-258.756-655.543-48.847-1424.783c0.674-2.471,4.411-1.689,3.953,0.832
				C1124.057,976.239,1018.238,1670.197,1208.042,2212.244z"/>
		</g>
		<path style="fill:#7D97F4;" d="M457.542,2553.198c259.147,875.147,2304.604,945.839,2673.683,110.831
			c25.292-57.222-19.389-120.122-86.216-121.393l-2537.681-48.267C473.687,2493.729,448.654,2523.184,457.542,2553.198z"/>
		<g>
			
				<linearGradient id="SVGID_00000056392621609771842450000012137081791620182665_" gradientUnits="userSpaceOnUse" x1="1806.5046" y1="596.6372" x2="2231.7888" y2="1285.1936">
				<stop  offset="0" style="stop-color:#FF928E"/>
				<stop  offset="1" style="stop-color:#FE7062"/>
			</linearGradient>
			
				<rect x="2593.007" y="1785.818" style="fill:url(#SVGID_00000056392621609771842450000012137081791620182665_);" width="544.096" height="1049.328"/>
			
				<linearGradient id="SVGID_00000058579471600945533770000002470874686976522420_" gradientUnits="userSpaceOnUse" x1="3236.9553" y1="749.7214" x2="2973.7112" y2="1451.7074">
				<stop  offset="0" style="stop-color:#4F52FF"/>
				<stop  offset="1" style="stop-color:#4042E2"/>
			</linearGradient>
			<path style="fill:url(#SVGID_00000058579471600945533770000002470874686976522420_);" d="M3209.976,1876.501h-642.879v-446.936
				l505.232-25.909l162.972,433.184C3243.881,1855.342,3230.371,1876.501,3209.976,1876.501z"/>
			
				<linearGradient id="SVGID_00000096036134499886659590000010555501733253000092_" gradientUnits="userSpaceOnUse" x1="2497.3528" y1="2074.5137" x2="3172.3413" y2="711.0376">
				<stop  offset="0" style="stop-color:#4F52FF"/>
				<stop  offset="1" style="stop-color:#4042E2"/>
			</linearGradient>
			<path style="fill:url(#SVGID_00000096036134499886659590000010555501733253000092_);" d="M3072.329,1410.133l-479.322,25.91
				v-51.819l447.904-25.909c17.352,0,31.418,14.067,31.418,31.419V1410.133z"/>
			<g style="opacity:0.89;">
				<path style="fill:#FFFFFF;" d="M3021.007,2550.143h-308.666c-0.62,0-1.123-0.503-1.123-1.123v-477.077
					c0-0.62,0.503-1.123,1.123-1.123h308.666c0.62,0,1.123,0.503,1.123,1.123v477.077
					C3022.13,2549.641,3021.627,2550.143,3021.007,2550.143z"/>
				<g>
					
						<linearGradient id="SVGID_00000131333479656016612560000016608811179902003901_" gradientUnits="userSpaceOnUse" x1="4110.1353" y1="1209.9187" x2="3365.186" y2="1832.9677">
						<stop  offset="0" style="stop-color:#E1473D"/>
						<stop  offset="1" style="stop-color:#E9605A"/>
					</linearGradient>
					<path style="fill:url(#SVGID_00000131333479656016612560000016608811179902003901_);" d="M2853.978,2524.234h-119.465
						c-0.345,0-0.624-0.28-0.624-0.624v-426.256c0-0.345,0.28-0.624,0.624-0.624h119.465c0.345,0,0.624,0.28,0.624,0.624v426.256
						C2854.602,2523.954,2854.323,2524.234,2853.978,2524.234z"/>
					
						<linearGradient id="SVGID_00000059271207176936749320000000958246510535469998_" gradientUnits="userSpaceOnUse" x1="4169.4741" y1="1281.4429" x2="3424.5249" y2="1904.4917">
						<stop  offset="0" style="stop-color:#E1473D"/>
						<stop  offset="1" style="stop-color:#E9605A"/>
					</linearGradient>
					<path style="fill:url(#SVGID_00000059271207176936749320000000958246510535469998_);" d="M2998.835,2524.234h-119.465
						c-0.345,0-0.624-0.28-0.624-0.624v-426.256c0-0.345,0.279-0.624,0.624-0.624h119.465c0.345,0,0.624,0.28,0.624,0.624v426.256
						C2999.459,2523.954,2999.179,2524.234,2998.835,2524.234z"/>
				</g>
			</g>
			
				<linearGradient id="SVGID_00000129196762412540213900000016695477888186600834_" gradientUnits="userSpaceOnUse" x1="2374.2544" y1="1068.2794" x2="1952.8806" y2="1438.2659">
				<stop  offset="0" style="stop-color:#FF928E"/>
				<stop  offset="1" style="stop-color:#FE7062"/>
			</linearGradient>
			<path style="fill:url(#SVGID_00000129196762412540213900000016695477888186600834_);" d="M704.002,2835.146h527.57V1785.818
				H687.475v1032.802C687.475,2827.747,694.874,2835.146,704.002,2835.146z"/>
			
				<linearGradient id="SVGID_00000181055035378042168090000014765651037290677677_" gradientUnits="userSpaceOnUse" x1="1572.502" y1="125.552" x2="1309.2573" y2="827.5391">
				<stop  offset="0" style="stop-color:#4F52FF"/>
				<stop  offset="1" style="stop-color:#4042E2"/>
			</linearGradient>
			<path style="fill:url(#SVGID_00000181055035378042168090000014765651037290677677_);" d="M614.602,1876.501h642.879v-446.936
				l-505.232-25.909L589.277,1836.84C580.696,1855.342,594.206,1876.501,614.602,1876.501z"/>
			
				<linearGradient id="SVGID_00000026876056440996815910000003539220811556855969_" gradientUnits="userSpaceOnUse" x1="810.5677" y1="1998.3021" x2="1202.0625" y2="729.3229">
				<stop  offset="0" style="stop-color:#4F52FF"/>
				<stop  offset="1" style="stop-color:#4042E2"/>
			</linearGradient>
			<path style="fill:url(#SVGID_00000026876056440996815910000003539220811556855969_);" d="M752.248,1410.133l479.323,25.91
				v-51.819l-447.904-25.909c-17.352,0-31.419,14.067-31.419,31.419V1410.133z"/>
			<g style="opacity:0.89;">
				<path style="fill:#FFFFFF;" d="M803.571,2550.143h308.666c0.62,0,1.123-0.503,1.123-1.123v-477.077
					c0-0.62-0.503-1.123-1.123-1.123H803.571c-0.62,0-1.123,0.503-1.123,1.123v477.077
					C802.448,2549.641,802.951,2550.143,803.571,2550.143z"/>
				<g>
					
						<linearGradient id="SVGID_00000126318220801780450750000012359826917951988412_" gradientUnits="userSpaceOnUse" x1="1560.3419" y1="1522.2614" x2="1296.377" y2="1914.8251">
						<stop  offset="0" style="stop-color:#E1473D"/>
						<stop  offset="1" style="stop-color:#E9605A"/>
					</linearGradient>
					<path style="fill:url(#SVGID_00000126318220801780450750000012359826917951988412_);" d="M970.599,2524.234h119.466
						c0.345,0,0.624-0.28,0.624-0.624v-426.256c0-0.345-0.279-0.624-0.624-0.624H970.599c-0.345,0-0.624,0.28-0.624,0.624v426.256
						C969.975,2523.954,970.255,2524.234,970.599,2524.234z"/>
					
						<linearGradient id="SVGID_00000120529183971647865670000016976986372476392621_" gradientUnits="userSpaceOnUse" x1="1460.709" y1="1455.0054" x2="1196.744" y2="1847.5691">
						<stop  offset="0" style="stop-color:#E1473D"/>
						<stop  offset="1" style="stop-color:#E9605A"/>
					</linearGradient>
					<path style="fill:url(#SVGID_00000120529183971647865670000016976986372476392621_);" d="M825.743,2524.234h119.466
						c0.345,0,0.624-0.28,0.624-0.624v-426.256c0-0.345-0.28-0.624-0.624-0.624H825.743c-0.345,0-0.624,0.28-0.624,0.624v426.256
						C825.119,2523.954,825.398,2524.234,825.743,2524.234z"/>
				</g>
			</g>
			
				<linearGradient id="SVGID_00000168828369449945135150000015747225958599382190_" gradientUnits="userSpaceOnUse" x1="1848.614" y1="3052.5583" x2="2118.9434" y2="-311.5052">
				<stop  offset="0" style="stop-color:#FEBBBA"/>
				<stop  offset="1" style="stop-color:#FF928E"/>
			</linearGradient>
			
				<rect x="1158.185" y="1640.078" style="fill:url(#SVGID_00000168828369449945135150000015747225958599382190_);" width="1511.833" height="1195.068"/>
			
				<linearGradient id="SVGID_00000014600088949066990600000006807596123920933547_" gradientUnits="userSpaceOnUse" x1="2089.2341" y1="1074.2637" x2="2710.2227" y2="-424.21">
				<stop  offset="0" style="stop-color:#4F52FF"/>
				<stop  offset="1" style="stop-color:#4042E2"/>
			</linearGradient>
			<path style="fill:url(#SVGID_00000014600088949066990600000006807596123920933547_);" d="M2634.246,1060.357H1157.373
				l-163.622,562.277c-3.825,13.143-1.632,27.254,6.014,38.707l16.828,25.208c8.969,13.436,24.31,21.542,40.768,21.542h1672.081
				c19.012,0,36.281-10.789,44.202-27.617l16.178-34.369c4.785-10.165,5.72-21.651,2.64-32.424L2634.246,1060.357z"/>
			
				<linearGradient id="SVGID_00000111883348974531899740000003997595861014194073_" gradientUnits="userSpaceOnUse" x1="1888.6835" y1="274.8226" x2="1895.6195" y2="1051.5912">
				<stop  offset="0" style="stop-color:#4F52FF"/>
				<stop  offset="1" style="stop-color:#4042E2"/>
			</linearGradient>
			<path style="fill:url(#SVGID_00000111883348974531899740000003997595861014194073_);" d="M2637.572,1060.357H1153.404v-25.486
				c0-9.639,7.945-17.493,17.844-17.64l1447.931-21.376c10.113-0.149,18.393,7.792,18.393,17.64V1060.357z"/>
			<path style="opacity:0.7;fill:#FFFFFF;" d="M2015.867,2089.485h-274.753c-12.476,0-22.59-10.114-22.59-22.59v-19.732
				c0-11.869,9.185-21.713,21.025-22.536l274.752-19.086c13.061-0.907,24.155,9.443,24.155,22.536v38.818
				C2038.457,2079.372,2028.344,2089.485,2015.867,2089.485z"/>
			<g>
				
					<linearGradient id="SVGID_00000093137371783617566090000013877217855002885799_" gradientUnits="userSpaceOnUse" x1="1849.6746" y1="448.5421" x2="1961.0588" y2="904.2036">
					<stop  offset="0" style="stop-color:#FF928E"/>
					<stop  offset="1" style="stop-color:#FE7062"/>
				</linearGradient>
				<path style="opacity:0.9;fill:url(#SVGID_00000093137371783617566090000013877217855002885799_);" d="M2292.524,1812.225h-3.04
					c-79.017,0-148.193,55.942-148.193,134.959v142.302h151.233V1812.225z"/>
				
					<linearGradient id="SVGID_00000149383970263671705140000004248647163338623917_" gradientUnits="userSpaceOnUse" x1="1759.4283" y1="470.6033" x2="1870.8127" y2="926.2654">
					<stop  offset="0" style="stop-color:#FF928E"/>
					<stop  offset="1" style="stop-color:#FE7062"/>
				</linearGradient>
				<path style="opacity:0.9;fill:url(#SVGID_00000149383970263671705140000004248647163338623917_);" d="M2141.291,2131.495
					v418.648c0,14.097,16.548,35.952,30.645,35.952h120.588v-454.6H2141.291z"/>
				
					<linearGradient id="SVGID_00000091729328603184101740000015146781586566447799_" gradientUnits="userSpaceOnUse" x1="2010.4645" y1="409.2367" x2="2121.8491" y2="864.9">
					<stop  offset="0" style="stop-color:#FF928E"/>
					<stop  offset="1" style="stop-color:#FE7062"/>
				</linearGradient>
				<path style="opacity:0.9;fill:url(#SVGID_00000091729328603184101740000015146781586566447799_);" d="M2333.818,1812.225h-7.686
					v277.26h151.233v-142.302C2477.365,1868.167,2412.834,1812.225,2333.818,1812.225z"/>
				
					<linearGradient id="SVGID_00000119820311275370668610000015834647718513478079_" gradientUnits="userSpaceOnUse" x1="1929.9962" y1="428.9056" x2="2041.3806" y2="884.5676">
					<stop  offset="0" style="stop-color:#FF928E"/>
					<stop  offset="1" style="stop-color:#FE7062"/>
				</linearGradient>
				<path style="opacity:0.9;fill:url(#SVGID_00000119820311275370668610000015834647718513478079_);" d="M2326.132,2586.095
					h125.234c14.097,0,25.999-21.855,25.999-35.952v-418.648h-151.233V2586.095z"/>
			</g>
			<g>
				
					<linearGradient id="SVGID_00000067230340025239497950000015290402744167798422_" gradientUnits="userSpaceOnUse" x1="2467.6101" y1="277.0619" x2="2072.7034" y2="904.8628">
					<stop  offset="0" style="stop-color:#FF928E"/>
					<stop  offset="1" style="stop-color:#FE7062"/>
				</linearGradient>
				<path style="opacity:0.9;fill:url(#SVGID_00000067230340025239497950000015290402744167798422_);" d="M1459.547,1812.225h-3.04
					c-79.017,0-148.193,55.942-148.193,134.959v142.302h151.233V1812.225z"/>
				
					<linearGradient id="SVGID_00000124149631450263782800000017416034051391423148_" gradientUnits="userSpaceOnUse" x1="2629.3943" y1="378.8262" x2="2234.4883" y2="1006.6259">
					<stop  offset="0" style="stop-color:#FF928E"/>
					<stop  offset="1" style="stop-color:#FE7062"/>
				</linearGradient>
				<path style="opacity:0.9;fill:url(#SVGID_00000124149631450263782800000017416034051391423148_);" d="M1308.314,2131.495
					v418.648c0,14.097,16.548,35.952,30.645,35.952h120.589v-454.6H1308.314z"/>
				
					<linearGradient id="SVGID_00000158731983494905811340000017106316755327756965_" gradientUnits="userSpaceOnUse" x1="2577.9729" y1="346.4822" x2="2183.0654" y2="974.2842">
					<stop  offset="0" style="stop-color:#FF928E"/>
					<stop  offset="1" style="stop-color:#FE7062"/>
				</linearGradient>
				<path style="opacity:0.9;fill:url(#SVGID_00000158731983494905811340000017106316755327756965_);" d="M1500.84,1812.225h-7.686
					v277.26h151.233v-142.302C1644.388,1868.167,1579.857,1812.225,1500.84,1812.225z"/>
				
					<linearGradient id="SVGID_00000177465288728634305140000015646288394520787885_" gradientUnits="userSpaceOnUse" x1="2756.2126" y1="458.5983" x2="2361.3057" y2="1086.3997">
					<stop  offset="0" style="stop-color:#FF928E"/>
					<stop  offset="1" style="stop-color:#FE7062"/>
				</linearGradient>
				<path style="opacity:0.9;fill:url(#SVGID_00000177465288728634305140000015646288394520787885_);" d="M1493.155,2586.095
					h125.234c14.096,0,25.999-21.855,25.999-35.952v-418.648h-151.233V2586.095z"/>
			</g>
			<path style="opacity:0.7;fill:#FFFFFF;" d="M1568.601,1641.831h-462.195c-11.406,0-21.866-5.239-28.698-14.373
				c-6.833-9.135-8.901-20.649-5.677-31.591l132.03-448.091c0.274-0.928,1.248-1.467,2.176-1.186c0.93,0.274,1.46,1.248,1.187,2.176
				l-132.03,448.091c-2.907,9.872-1.041,20.261,5.122,28.501c6.163,8.24,15.599,12.967,25.89,12.967h462.195
				c0.969,0,1.753,0.784,1.753,1.753C1570.354,1641.047,1569.57,1641.831,1568.601,1641.831z"/>
			<g>
				
					<linearGradient id="SVGID_00000145029260861536625460000009948350273826574497_" gradientUnits="userSpaceOnUse" x1="1876.4136" y1="2597.5164" x2="1883.1696" y2="3246.1038">
					<stop  offset="0" style="stop-color:#FF928E"/>
					<stop  offset="1" style="stop-color:#FE7062"/>
				</linearGradient>
				<path style="fill:url(#SVGID_00000145029260861536625460000009948350273826574497_);" d="M2112.862,2835.146H1644.12V2758.8
					c0-1.751,1.42-3.17,3.171-3.17h462.401c1.751,0,3.17,1.419,3.17,3.17V2835.146z"/>
				
					<linearGradient id="SVGID_00000031203084090590074070000010789273490871943344_" gradientUnits="userSpaceOnUse" x1="1657.2203" y1="4273.6353" x2="1849.8894" y2="2681.573">
					<stop  offset="0" style="stop-color:#FF928E"/>
					<stop  offset="1" style="stop-color:#FE7062"/>
				</linearGradient>
				<path style="fill:url(#SVGID_00000031203084090590074070000010789273490871943344_);" d="M2038.457,2755.629h-319.932v-620.575
					c0-1.966,1.594-3.56,3.56-3.56h312.813c1.966,0,3.56,1.594,3.56,3.56V2755.629z"/>
				<path style="opacity:0.7;fill:#FFFFFF;" d="M1834.066,2587.849h-48.287c-16.102,0-29.201-13.099-29.201-29.201v-356.968
					c0-16.102,13.099-29.201,29.201-29.201h48.287c16.102,0,29.201,13.099,29.201,29.201v356.968
					C1863.267,2574.749,1850.168,2587.849,1834.066,2587.849z M1785.778,2175.985c-14.167,0-25.695,11.527-25.695,25.695v356.968
					c0,14.168,11.527,25.695,25.695,25.695h48.287c14.168,0,25.695-11.527,25.695-25.695v-356.968
					c0-14.167-11.527-25.695-25.695-25.695H1785.778z"/>
				<path style="opacity:0.7;fill:#FFFFFF;" d="M1968.812,2587.849h-48.287c-16.102,0-29.201-13.099-29.201-29.201v-356.968
					c0-16.102,13.099-29.201,29.201-29.201h48.287c16.102,0,29.201,13.099,29.201,29.201v356.968
					C1998.013,2574.749,1984.914,2587.849,1968.812,2587.849z M1920.525,2175.985c-14.167,0-25.695,11.527-25.695,25.695v356.968
					c0,14.168,11.527,25.695,25.695,25.695h48.287c14.167,0,25.695-11.527,25.695-25.695v-356.968
					c0-14.167-11.527-25.695-25.695-25.695H1920.525z"/>
				<path style="opacity:0.7;fill:#FFFFFF;" d="M1834.066,2708.197h-48.287c-16.102,0-29.201-13.099-29.201-29.201v-41.059
					c0-16.1,13.099-29.199,29.201-29.199h48.287c16.102,0,29.201,13.099,29.201,29.199v41.059
					C1863.267,2695.098,1850.168,2708.197,1834.066,2708.197z M1785.778,2612.244c-14.167,0-25.695,11.525-25.695,25.693v41.059
					c0,14.167,11.527,25.695,25.695,25.695h48.287c14.168,0,25.695-11.527,25.695-25.695v-41.059
					c0-14.167-11.527-25.693-25.695-25.693H1785.778z"/>
				<path style="opacity:0.7;fill:#FFFFFF;" d="M1968.812,2708.197h-48.287c-16.102,0-29.201-13.099-29.201-29.201v-41.059
					c0-16.1,13.099-29.199,29.201-29.199h48.287c16.102,0,29.201,13.099,29.201,29.199v41.059
					C1998.013,2695.098,1984.914,2708.197,1968.812,2708.197z M1920.525,2612.244c-14.167,0-25.695,11.525-25.695,25.693v41.059
					c0,14.167,11.527,25.695,25.695,25.695h48.287c14.167,0,25.695-11.527,25.695-25.695v-41.059
					c0-14.167-11.527-25.693-25.695-25.693H1920.525z"/>
			</g>
			<path style="opacity:0.7;fill:#FFFFFF;" d="M2490.448,2612.244h-364.051c-20.875,0-37.857-16.984-37.857-37.859v-630.318
				c0-99.677,81.094-180.769,180.771-180.769h78.226c99.677,0,180.769,81.092,180.769,180.769v630.318
				C2528.306,2595.26,2511.324,2612.244,2490.448,2612.244z M2269.311,1766.804c-97.744,0-177.264,79.519-177.264,177.262v630.318
				c0,18.942,15.41,34.353,34.351,34.353h364.051c18.941,0,34.351-15.41,34.351-34.353v-630.318
				c0-97.744-79.519-177.262-177.262-177.262H2269.311z"/>
			<path style="opacity:0.7;fill:#FFFFFF;" d="M1657.635,2612.244h-364.051c-20.875,0-37.857-16.984-37.857-37.859v-630.318
				c0-99.677,81.092-180.769,180.769-180.769h78.226c99.677,0,180.77,81.092,180.77,180.769v630.318
				C1695.493,2595.26,1678.511,2612.244,1657.635,2612.244z M1436.496,1766.804c-97.744,0-177.262,79.519-177.262,177.262v630.318
				c0,18.942,15.411,34.353,34.351,34.353h364.051c18.94,0,34.351-15.41,34.351-34.353v-630.318
				c0-97.744-79.52-177.262-177.264-177.262H1436.496z"/>
			<path style="opacity:0.7;fill:#FFFFFF;" d="M2684.775,1510.711c-0.753,0-1.448-0.488-1.678-1.244l-102.683-339.346
				c-7.016-23.188-27.996-38.895-52.206-39.087c-268.822-2.121-433.426-2.037-440.306,0.224c-0.906,0.296-1.912-0.156-2.238-1.041
				c-0.327-0.885,0.06-1.854,0.933-2.212c8.239-3.388,280.236-1.755,441.638-0.478c25.754,0.204,48.071,16.912,55.534,41.576
				l102.683,339.345c0.281,0.928-0.243,1.906-1.169,2.187C2685.114,1510.687,2684.943,1510.711,2684.775,1510.711z"/>
		</g>
		<g>
			<g>
				<path style="fill:#91B3FA;" d="M2593.134,1925.391c-26.516,7.107-53.099,19.285-63.292,33.759
					c-45.982,65.292,24.616,155.729,48.899,215.749c41.716,103.108,55.515,215.511,24.845,323.35
					c-33.233,116.847-54.137,231.878-38.641,351.604c7.983,61.68,28.148,127.107,75.043,176.25
					c88.624,92.844,317.739,40.842,363.137-63.844c36.206-83.49,23.901-174.172-0.377-257.426
					c-40.841-140.051-108.495-272.904-150.398-412.659c-32.044-106.868-14.771-319.982-164.44-366.416
					C2660.54,1917.267,2621.264,1917.851,2593.134,1925.391z"/>
				<path style="fill:#7D97F4;" d="M2791.269,3245.918c-0.761,0.044-1.542-0.039-2.316-0.26c-3.699-1.057-5.839-4.914-4.779-8.613
					c103.591-361.864,50.284-686.667-12.676-895.422c-68.287-226.41-162.344-369.002-163.288-370.415
					c-2.133-3.203-1.268-7.527,1.933-9.659c3.202-2.141,7.522-1.271,9.658,1.931c0.952,1.429,95.976,145.391,164.888,373.639
					c63.6,210.649,117.459,538.438,12.876,903.759C2796.73,3243.804,2794.143,3245.753,2791.269,3245.918z"/>
			</g>
			<g>
				<path style="fill:#7D97F4;" d="M2879.084,2832.753c-7.15-84.036,29.38-177.567,50.268-264.561
					c11.043-45.996,17.775-91.921,13.389-139.281c-4.36-47.089-22.936-98.929,0.309-144.027
					c46.839-90.854,140.741-41.92,191.498,32.141c58.901,85.944,67.68,220.622,85.325,325.045
					c10.637,62.951,28.623,127.987,32.228,191.659c5.971,105.48-22.47,176.564-75.753,222.327
					c-51.106,43.893-124.865,48.834-181.439,12.26C2943.801,3035.276,2890.619,2968.321,2879.084,2832.753z"/>
				<path style="fill:#91B3FA;" d="M3076.858,3236.919c-1.066,0.279-2.214,0.307-3.361,0.036c-3.743-0.886-6.06-4.64-5.174-8.383
					c1.174-4.962,115.836-500.785-20.112-913.004c-1.204-3.653,0.78-7.591,4.435-8.796c3.581-1.202,7.592,0.78,8.796,4.435
					c137.2,416.021,21.621,915.577,20.438,920.576C3081.265,3234.376,3079.271,3236.288,3076.858,3236.919z"/>
			</g>
		</g>
	</g>
</g>
</svg>
